<mxfile host="app.diagrams.net" modified="2021-09-07T14:03:49.618Z" agent="5.0 (Windows NT 10.0; Win64; x64) AppleWebKit/537.36 (KHTML, like Gecko) Chrome/93.0.4577.63 Safari/537.36" etag="UJchWxSb-_ryLyfqd5CC" version="15.1.0" type="github">
  <diagram id="DTMo3AElxzk1ZOb-Licn" name="Page-1">
    <mxGraphModel dx="1038" dy="579" grid="1" gridSize="10" guides="1" tooltips="1" connect="1" arrows="1" fold="1" page="0" pageScale="1" pageWidth="850" pageHeight="1100" math="0" shadow="0">
      <root>
        <mxCell id="0" />
        <mxCell id="1" parent="0" />
        <mxCell id="HGFu7OjeY76COHD4rQ1H-3" value="" style="edgeStyle=orthogonalEdgeStyle;rounded=0;orthogonalLoop=1;jettySize=auto;html=1;" edge="1" parent="1" source="HGFu7OjeY76COHD4rQ1H-1" target="HGFu7OjeY76COHD4rQ1H-2">
          <mxGeometry relative="1" as="geometry" />
        </mxCell>
        <mxCell id="HGFu7OjeY76COHD4rQ1H-1" value="Start" style="ellipse;whiteSpace=wrap;html=1;" vertex="1" parent="1">
          <mxGeometry x="365" y="30" width="120" height="80" as="geometry" />
        </mxCell>
        <mxCell id="HGFu7OjeY76COHD4rQ1H-5" value="" style="edgeStyle=orthogonalEdgeStyle;rounded=0;orthogonalLoop=1;jettySize=auto;html=1;" edge="1" parent="1" source="HGFu7OjeY76COHD4rQ1H-2" target="HGFu7OjeY76COHD4rQ1H-4">
          <mxGeometry relative="1" as="geometry" />
        </mxCell>
        <mxCell id="HGFu7OjeY76COHD4rQ1H-2" value="Show &quot;Enter starting balance in dollars.&quot;" style="shape=parallelogram;perimeter=parallelogramPerimeter;whiteSpace=wrap;html=1;fixedSize=1;" vertex="1" parent="1">
          <mxGeometry x="365" y="200" width="120" height="60" as="geometry" />
        </mxCell>
        <mxCell id="HGFu7OjeY76COHD4rQ1H-9" value="" style="edgeStyle=orthogonalEdgeStyle;rounded=0;orthogonalLoop=1;jettySize=auto;html=1;" edge="1" parent="1" source="HGFu7OjeY76COHD4rQ1H-4" target="HGFu7OjeY76COHD4rQ1H-8">
          <mxGeometry relative="1" as="geometry" />
        </mxCell>
        <mxCell id="HGFu7OjeY76COHD4rQ1H-4" value="Get Input" style="shape=parallelogram;perimeter=parallelogramPerimeter;whiteSpace=wrap;html=1;fixedSize=1;" vertex="1" parent="1">
          <mxGeometry x="365" y="340" width="120" height="60" as="geometry" />
        </mxCell>
        <mxCell id="HGFu7OjeY76COHD4rQ1H-13" value="No" style="edgeStyle=orthogonalEdgeStyle;rounded=0;orthogonalLoop=1;jettySize=auto;html=1;" edge="1" parent="1" source="HGFu7OjeY76COHD4rQ1H-8" target="HGFu7OjeY76COHD4rQ1H-12">
          <mxGeometry relative="1" as="geometry" />
        </mxCell>
        <mxCell id="HGFu7OjeY76COHD4rQ1H-16" value="Yes" style="edgeStyle=orthogonalEdgeStyle;rounded=0;orthogonalLoop=1;jettySize=auto;html=1;" edge="1" parent="1" source="HGFu7OjeY76COHD4rQ1H-8" target="HGFu7OjeY76COHD4rQ1H-15">
          <mxGeometry relative="1" as="geometry" />
        </mxCell>
        <mxCell id="HGFu7OjeY76COHD4rQ1H-8" value="Is input a positve number with only two decimal places?" style="rhombus;whiteSpace=wrap;html=1;" vertex="1" parent="1">
          <mxGeometry x="385" y="470" width="80" height="80" as="geometry" />
        </mxCell>
        <mxCell id="HGFu7OjeY76COHD4rQ1H-14" style="edgeStyle=orthogonalEdgeStyle;rounded=0;orthogonalLoop=1;jettySize=auto;html=1;exitX=0.5;exitY=0;exitDx=0;exitDy=0;entryX=1;entryY=0.5;entryDx=0;entryDy=0;" edge="1" parent="1" source="HGFu7OjeY76COHD4rQ1H-12" target="HGFu7OjeY76COHD4rQ1H-2">
          <mxGeometry relative="1" as="geometry">
            <Array as="points">
              <mxPoint x="585" y="230" />
            </Array>
          </mxGeometry>
        </mxCell>
        <mxCell id="HGFu7OjeY76COHD4rQ1H-12" value="Show &quot;Invalid Input&quot;" style="shape=parallelogram;perimeter=parallelogramPerimeter;whiteSpace=wrap;html=1;fixedSize=1;" vertex="1" parent="1">
          <mxGeometry x="525" y="480" width="120" height="60" as="geometry" />
        </mxCell>
        <mxCell id="HGFu7OjeY76COHD4rQ1H-18" value="" style="edgeStyle=orthogonalEdgeStyle;rounded=0;orthogonalLoop=1;jettySize=auto;html=1;" edge="1" parent="1" source="HGFu7OjeY76COHD4rQ1H-15" target="HGFu7OjeY76COHD4rQ1H-17">
          <mxGeometry relative="1" as="geometry" />
        </mxCell>
        <mxCell id="HGFu7OjeY76COHD4rQ1H-15" value="Show &quot;Enter yearly contribution in dollars.&quot;" style="shape=parallelogram;perimeter=parallelogramPerimeter;whiteSpace=wrap;html=1;fixedSize=1;" vertex="1" parent="1">
          <mxGeometry x="365" y="640" width="120" height="60" as="geometry" />
        </mxCell>
        <mxCell id="HGFu7OjeY76COHD4rQ1H-20" value="" style="edgeStyle=orthogonalEdgeStyle;rounded=0;orthogonalLoop=1;jettySize=auto;html=1;" edge="1" parent="1" source="HGFu7OjeY76COHD4rQ1H-17" target="HGFu7OjeY76COHD4rQ1H-19">
          <mxGeometry relative="1" as="geometry" />
        </mxCell>
        <mxCell id="HGFu7OjeY76COHD4rQ1H-17" value="Get Input" style="shape=parallelogram;perimeter=parallelogramPerimeter;whiteSpace=wrap;html=1;fixedSize=1;" vertex="1" parent="1">
          <mxGeometry x="365" y="780" width="120" height="60" as="geometry" />
        </mxCell>
        <mxCell id="HGFu7OjeY76COHD4rQ1H-22" value="No" style="edgeStyle=orthogonalEdgeStyle;rounded=0;orthogonalLoop=1;jettySize=auto;html=1;" edge="1" parent="1" source="HGFu7OjeY76COHD4rQ1H-19" target="HGFu7OjeY76COHD4rQ1H-21">
          <mxGeometry relative="1" as="geometry" />
        </mxCell>
        <mxCell id="HGFu7OjeY76COHD4rQ1H-25" value="Yes" style="edgeStyle=orthogonalEdgeStyle;rounded=0;orthogonalLoop=1;jettySize=auto;html=1;" edge="1" parent="1" source="HGFu7OjeY76COHD4rQ1H-19" target="HGFu7OjeY76COHD4rQ1H-24">
          <mxGeometry relative="1" as="geometry" />
        </mxCell>
        <mxCell id="HGFu7OjeY76COHD4rQ1H-19" value="Is input a positve number with only two decimal places?" style="rhombus;whiteSpace=wrap;html=1;" vertex="1" parent="1">
          <mxGeometry x="385" y="910" width="80" height="80" as="geometry" />
        </mxCell>
        <mxCell id="HGFu7OjeY76COHD4rQ1H-23" style="edgeStyle=orthogonalEdgeStyle;rounded=0;orthogonalLoop=1;jettySize=auto;html=1;exitX=0.5;exitY=0;exitDx=0;exitDy=0;entryX=1;entryY=0.5;entryDx=0;entryDy=0;" edge="1" parent="1" source="HGFu7OjeY76COHD4rQ1H-21" target="HGFu7OjeY76COHD4rQ1H-15">
          <mxGeometry relative="1" as="geometry">
            <Array as="points">
              <mxPoint x="585" y="670" />
            </Array>
          </mxGeometry>
        </mxCell>
        <mxCell id="HGFu7OjeY76COHD4rQ1H-21" value="Show &quot;Invalid Input&quot;" style="shape=parallelogram;perimeter=parallelogramPerimeter;whiteSpace=wrap;html=1;fixedSize=1;" vertex="1" parent="1">
          <mxGeometry x="525" y="920" width="120" height="60" as="geometry" />
        </mxCell>
        <mxCell id="HGFu7OjeY76COHD4rQ1H-27" value="" style="edgeStyle=orthogonalEdgeStyle;rounded=0;orthogonalLoop=1;jettySize=auto;html=1;" edge="1" parent="1" source="HGFu7OjeY76COHD4rQ1H-24" target="HGFu7OjeY76COHD4rQ1H-26">
          <mxGeometry relative="1" as="geometry" />
        </mxCell>
        <mxCell id="HGFu7OjeY76COHD4rQ1H-24" value="Show &quot;Enter average return on investment as a percent.&quot;" style="shape=parallelogram;perimeter=parallelogramPerimeter;whiteSpace=wrap;html=1;fixedSize=1;" vertex="1" parent="1">
          <mxGeometry x="365" y="1080" width="120" height="60" as="geometry" />
        </mxCell>
        <mxCell id="HGFu7OjeY76COHD4rQ1H-29" value="" style="edgeStyle=orthogonalEdgeStyle;rounded=0;orthogonalLoop=1;jettySize=auto;html=1;" edge="1" parent="1" source="HGFu7OjeY76COHD4rQ1H-26" target="HGFu7OjeY76COHD4rQ1H-28">
          <mxGeometry relative="1" as="geometry" />
        </mxCell>
        <mxCell id="HGFu7OjeY76COHD4rQ1H-26" value="Get Input" style="shape=parallelogram;perimeter=parallelogramPerimeter;whiteSpace=wrap;html=1;fixedSize=1;" vertex="1" parent="1">
          <mxGeometry x="365" y="1220" width="120" height="60" as="geometry" />
        </mxCell>
        <mxCell id="HGFu7OjeY76COHD4rQ1H-31" value="No" style="edgeStyle=orthogonalEdgeStyle;rounded=0;orthogonalLoop=1;jettySize=auto;html=1;" edge="1" parent="1" source="HGFu7OjeY76COHD4rQ1H-28" target="HGFu7OjeY76COHD4rQ1H-30">
          <mxGeometry relative="1" as="geometry" />
        </mxCell>
        <mxCell id="HGFu7OjeY76COHD4rQ1H-34" value="Yes" style="edgeStyle=orthogonalEdgeStyle;rounded=0;orthogonalLoop=1;jettySize=auto;html=1;" edge="1" parent="1" source="HGFu7OjeY76COHD4rQ1H-28" target="HGFu7OjeY76COHD4rQ1H-33">
          <mxGeometry relative="1" as="geometry" />
        </mxCell>
        <mxCell id="HGFu7OjeY76COHD4rQ1H-28" value="Is input a positive number?" style="rhombus;whiteSpace=wrap;html=1;" vertex="1" parent="1">
          <mxGeometry x="385" y="1350" width="80" height="80" as="geometry" />
        </mxCell>
        <mxCell id="HGFu7OjeY76COHD4rQ1H-32" style="edgeStyle=orthogonalEdgeStyle;rounded=0;orthogonalLoop=1;jettySize=auto;html=1;exitX=0.5;exitY=0;exitDx=0;exitDy=0;entryX=1;entryY=0.5;entryDx=0;entryDy=0;" edge="1" parent="1" source="HGFu7OjeY76COHD4rQ1H-30" target="HGFu7OjeY76COHD4rQ1H-24">
          <mxGeometry relative="1" as="geometry">
            <Array as="points">
              <mxPoint x="585" y="1110" />
            </Array>
          </mxGeometry>
        </mxCell>
        <mxCell id="HGFu7OjeY76COHD4rQ1H-30" value="Show &quot;Invalid Input&quot;" style="shape=parallelogram;perimeter=parallelogramPerimeter;whiteSpace=wrap;html=1;fixedSize=1;" vertex="1" parent="1">
          <mxGeometry x="525" y="1360" width="120" height="60" as="geometry" />
        </mxCell>
        <mxCell id="HGFu7OjeY76COHD4rQ1H-36" value="" style="edgeStyle=orthogonalEdgeStyle;rounded=0;orthogonalLoop=1;jettySize=auto;html=1;" edge="1" parent="1" source="HGFu7OjeY76COHD4rQ1H-33" target="HGFu7OjeY76COHD4rQ1H-35">
          <mxGeometry relative="1" as="geometry" />
        </mxCell>
        <mxCell id="HGFu7OjeY76COHD4rQ1H-33" value="Show &quot;Enter number of years for report.&quot;" style="shape=parallelogram;perimeter=parallelogramPerimeter;whiteSpace=wrap;html=1;fixedSize=1;" vertex="1" parent="1">
          <mxGeometry x="365" y="1520" width="120" height="60" as="geometry" />
        </mxCell>
        <mxCell id="HGFu7OjeY76COHD4rQ1H-38" value="" style="edgeStyle=orthogonalEdgeStyle;rounded=0;orthogonalLoop=1;jettySize=auto;html=1;" edge="1" parent="1" source="HGFu7OjeY76COHD4rQ1H-35" target="HGFu7OjeY76COHD4rQ1H-37">
          <mxGeometry relative="1" as="geometry" />
        </mxCell>
        <mxCell id="HGFu7OjeY76COHD4rQ1H-35" value="Get Input" style="shape=parallelogram;perimeter=parallelogramPerimeter;whiteSpace=wrap;html=1;fixedSize=1;" vertex="1" parent="1">
          <mxGeometry x="365" y="1660" width="120" height="60" as="geometry" />
        </mxCell>
        <mxCell id="HGFu7OjeY76COHD4rQ1H-40" value="No" style="edgeStyle=orthogonalEdgeStyle;rounded=0;orthogonalLoop=1;jettySize=auto;html=1;" edge="1" parent="1" source="HGFu7OjeY76COHD4rQ1H-37" target="HGFu7OjeY76COHD4rQ1H-39">
          <mxGeometry relative="1" as="geometry" />
        </mxCell>
        <mxCell id="HGFu7OjeY76COHD4rQ1H-43" value="Yes" style="edgeStyle=orthogonalEdgeStyle;rounded=0;orthogonalLoop=1;jettySize=auto;html=1;" edge="1" parent="1" source="HGFu7OjeY76COHD4rQ1H-37" target="HGFu7OjeY76COHD4rQ1H-42">
          <mxGeometry relative="1" as="geometry" />
        </mxCell>
        <mxCell id="HGFu7OjeY76COHD4rQ1H-37" value="Is input a positive whole number?" style="rhombus;whiteSpace=wrap;html=1;" vertex="1" parent="1">
          <mxGeometry x="385" y="1790" width="80" height="80" as="geometry" />
        </mxCell>
        <mxCell id="HGFu7OjeY76COHD4rQ1H-41" style="edgeStyle=orthogonalEdgeStyle;rounded=0;orthogonalLoop=1;jettySize=auto;html=1;exitX=0.5;exitY=0;exitDx=0;exitDy=0;entryX=1;entryY=0.5;entryDx=0;entryDy=0;" edge="1" parent="1" source="HGFu7OjeY76COHD4rQ1H-39" target="HGFu7OjeY76COHD4rQ1H-33">
          <mxGeometry relative="1" as="geometry">
            <Array as="points">
              <mxPoint x="585" y="1550" />
            </Array>
          </mxGeometry>
        </mxCell>
        <mxCell id="HGFu7OjeY76COHD4rQ1H-39" value="Show &quot;Invalid Input&quot;" style="shape=parallelogram;perimeter=parallelogramPerimeter;whiteSpace=wrap;html=1;fixedSize=1;" vertex="1" parent="1">
          <mxGeometry x="525" y="1800" width="120" height="60" as="geometry" />
        </mxCell>
        <mxCell id="HGFu7OjeY76COHD4rQ1H-45" value="" style="edgeStyle=orthogonalEdgeStyle;rounded=0;orthogonalLoop=1;jettySize=auto;html=1;" edge="1" parent="1" source="HGFu7OjeY76COHD4rQ1H-42" target="HGFu7OjeY76COHD4rQ1H-44">
          <mxGeometry relative="1" as="geometry" />
        </mxCell>
        <mxCell id="HGFu7OjeY76COHD4rQ1H-42" value="Process all numbers put in to get result" style="whiteSpace=wrap;html=1;" vertex="1" parent="1">
          <mxGeometry x="365" y="1960" width="120" height="60" as="geometry" />
        </mxCell>
        <mxCell id="HGFu7OjeY76COHD4rQ1H-47" value="" style="edgeStyle=orthogonalEdgeStyle;rounded=0;orthogonalLoop=1;jettySize=auto;html=1;" edge="1" parent="1" source="HGFu7OjeY76COHD4rQ1H-44" target="HGFu7OjeY76COHD4rQ1H-46">
          <mxGeometry relative="1" as="geometry" />
        </mxCell>
        <mxCell id="HGFu7OjeY76COHD4rQ1H-44" value="Show result" style="shape=parallelogram;perimeter=parallelogramPerimeter;whiteSpace=wrap;html=1;fixedSize=1;" vertex="1" parent="1">
          <mxGeometry x="365" y="2100" width="120" height="60" as="geometry" />
        </mxCell>
        <mxCell id="HGFu7OjeY76COHD4rQ1H-46" value="End" style="ellipse;whiteSpace=wrap;html=1;" vertex="1" parent="1">
          <mxGeometry x="365" y="2240" width="120" height="60" as="geometry" />
        </mxCell>
      </root>
    </mxGraphModel>
  </diagram>
</mxfile>
